<?xml version="1.0" encoding="utf-8"?>
<!-- Generator: Adobe Illustrator 24.1.2, SVG Export Plug-In . SVG Version: 6.00 Build 0)  -->
<svg version="1.1" id="Layer_1" xmlns="http://www.w3.org/2000/svg" xmlns:xlink="http://www.w3.org/1999/xlink" x="0px" y="0px"
	 viewBox="0 0 500 500" style="enable-background:new 0 0 500 500;" xml:space="preserve">
<style type="text/css">
	.st0{display:none;}
	.st1{display:inline;}
	.st2{display:inline;fill:none;stroke:#020203;stroke-width:15;stroke-miterlimit:10;}
</style>
<g id="Layer_1_1_" class="st0">
	<g class="st1">
		<path d="M434.6,7.3c-2.1-2.1-5-3.3-8.1-3.3c-3,0-5.9,1.2-8.1,3.3L255.7,170l-0.4,0.5l-0.2,0.2c-0.2,0.3-0.6,0.7-0.8,1
			c0,0.1-0.1,0.1-0.1,0.2c-0.2,0.3-0.3,0.6-0.6,0.9c-0.1,0.1-0.1,0.2-0.2,0.3c-0.1,0.3-0.2,0.6-0.3,0.9c0,0.1-0.1,0.1-0.1,0.2
			l-29,87.4c-1.4,4.1-0.3,8.6,2.7,11.6c2.1,2.1,5,3.3,8.1,3.3c1.2,0,2.5-0.2,3.6-0.6l87.2-29.1c0.1,0,0.1,0,0.2-0.1
			c0.4-0.1,0.7-0.3,1-0.5c0.1,0,0.2-0.1,0.2-0.1c0.3-0.2,0.8-0.5,1.1-0.7c0.3-0.2,0.7-0.6,1-0.8c0.1-0.1,0.2-0.1,0.2-0.2
			c0.1-0.1,0.3-0.2,0.5-0.5L492.6,81.3c2.1-2.1,3.3-5,3.3-8s-1.2-5.9-3.3-8L434.6,7.3z M268.7,199.1l32.2,32.2l-48.2,16L268.7,199.1
			z M321.8,220.1l-42-42L426.5,31.4l42,42L321.8,220.1z"/>
		<path d="M407.7,216.4c-6.3,0-11.3,5.1-11.4,11.4v212.4c-0.1,18.8-15.3,34-34.1,34.1H59.8c-18.8-0.1-34-15.3-34.1-34.1V137.6
			c0.1-18.8,15.3-34,34.1-34.1h212.4c6.3,0,11.4-5.1,11.4-11.4s-5.1-11.4-11.4-11.4H59.8C28.4,80.8,3,106.3,3,137.6v302.5
			c0,31.4,25.4,56.8,56.8,56.8h302.5c31.4,0,56.8-25.4,56.8-56.8V227.7C419.1,221.5,414,216.4,407.7,216.4L407.7,216.4z"/>
	</g>
</g>
<g id="Layer_2_1_">
	<path d="M378.7,492.5H43.4c-20.1,0-36.5-16.4-36.5-36.5V122.3c0-21,17-38,38-38h234.9c4.1,0,7.5,3.4,7.5,7.5s-3.4,7.5-7.5,7.5H44.9
		c-12.7,0-23,10.3-23,23V456c0,11.9,9.6,21.5,21.5,21.5h335.3c11.9,0,21.5-9.6,21.5-21.5V216.4c0-4.1,3.4-7.5,7.5-7.5
		s7.5,3.4,7.5,7.5V456C415.2,476.1,398.8,492.5,378.7,492.5z"/>
	<path d="M323.5,243.6L254.2,177L394.5,30.9c2.7-2.9,6.4-4.5,10.4-4.6c4-0.1,7.8,1.4,10.8,4.2l47.8,45.9c6,5.8,6.1,15.3,0.4,21.2
		L323.5,243.6z M275.4,176.6l47.7,45.8L453,87.2l-47.7-45.8L275.4,176.6z"/>
	<path d="M245.8,263.6c-2.1,0-4.1-0.7-5.6-2.1c-2.1-1.9-3.2-4.7-2.8-7.5l0.1-0.6l15-71.7c0.9-4.5,4.3-8.3,8.8-9.7
		c4.4-1.4,9.2-0.3,12.5,2.9l51.5,49.4c3.1,3.2,4.2,7.9,3,12.3c-1.3,4.5-4.8,7.9-9.3,9l-71,17.8C247.2,263.5,246.5,263.6,245.8,263.6
		z M266.3,188.6l-12.1,57.7l57.3-14.4L266.3,188.6z M315.3,231C315.3,231,315.3,231,315.3,231L315.3,231z M263.3,185.7
		C263.3,185.7,263.3,185.7,263.3,185.7L263.3,185.7z M267.2,184.7L267.2,184.7C267.1,184.7,267.2,184.7,267.2,184.7z"/>
</g>
<g id="Layer_3" class="st0">
	<path class="st2" d="M485.3,258h-49.5c-3.4,0-6.1,2.7-6.1,6.1V479c0,3.4-2.7,6.1-6.1,6.1H311.4c-3.4,0-6.1-2.7-6.1-6.1V351.5
		c0-3.4-2.7-6.1-6.1-6.1H200c-3.4,0-6.1,2.7-6.1,6.1V479c0,3.4-2.7,6.1-6.1,6.1H76.3c-3.4,0-6.1-2.7-6.1-6.1V264.1
		c0-3.4-2.7-6.1-6.1-6.1H17.6c-5.6,0-8.2-6.9-4.1-10.7L247.4,38.5c2.3-2.1,5.8-2.1,8.1,0l67.6,60.3c3.9,3.5,10.2,0.7,10.2-4.6V68.8
		c0-3.4,2.7-6.1,6.1-6.1h97c3.4,0,6.1,2.7,6.1,6.1v133.9c0,1.7,0.7,3.4,2,4.6l44.9,40.1C493.6,251,490.9,258,485.3,258z"/>
</g>
</svg>
