<?xml version="1.0" encoding="iso-8859-1"?>
<!-- Generator: Adobe Illustrator 24.1.2, SVG Export Plug-In . SVG Version: 6.00 Build 0)  -->
<svg version="1.1" id="Layer_1" xmlns="http://www.w3.org/2000/svg" xmlns:xlink="http://www.w3.org/1999/xlink" x="0px" y="0px"
	 viewBox="0 0 200 200" style="enable-background:new 0 0 200 200;" xml:space="preserve">
<g>
	<path d="M173.015,3.975c-0.846-0.846-1.999-1.317-3.196-1.305c-1.195,0.008-2.338,0.475-3.197,1.305l-64.482,64.479l-0.178,0.182
		l-0.09,0.09c-0.089,0.135-0.224,0.271-0.315,0.405c0,0.045-0.045,0.045-0.045,0.09c-0.09,0.134-0.137,0.226-0.226,0.36
		c-0.047,0.045-0.047,0.09-0.09,0.134c-0.045,0.135-0.089,0.226-0.135,0.361c0,0.045-0.045,0.045-0.045,0.089l-11.482,34.628
		c-0.55,1.611-0.131,3.398,1.082,4.593c0.85,0.839,1.999,1.309,3.195,1.306c0.49-0.01,0.975-0.085,1.442-0.226L129.79,98.94
		c0.044,0,0.044,0,0.089-0.045c0.143-0.041,0.281-0.101,0.405-0.179c0.035-0.006,0.068-0.021,0.092-0.047
		c0.134-0.089,0.315-0.179,0.45-0.271c0.134-0.09,0.27-0.226,0.405-0.315c0.046-0.044,0.09-0.044,0.09-0.09
		c0.045-0.045,0.134-0.09,0.181-0.179l64.522-64.526c0.845-0.842,1.319-1.985,1.319-3.174c0-1.192-0.474-2.335-1.319-3.175
		L173.015,3.975z M107.275,79.982l12.743,12.743l-19.093,6.348L107.275,79.982z M128.35,88.313l-16.661-16.659l58.13-58.132
		l16.659,16.661L128.35,88.313z M128.35,88.313"/>
	<path d="M162.389,86.826c-2.484,0.007-4.496,2.02-4.503,4.504v84.157c-0.021,7.451-6.056,13.485-13.509,13.51H24.515
		c-7.451-0.024-13.487-6.059-13.508-13.51V55.622c0.021-7.451,6.057-13.486,13.508-13.508h84.155c2.488,0,4.503-2.016,4.503-4.502
		c0-2.487-2.014-4.504-4.503-4.504H24.515C12.082,33.113,2.006,43.19,2,55.622v119.865C2.006,187.918,12.082,197.996,24.515,198
		h119.862c12.433-0.004,22.51-10.082,22.514-22.513V91.33C166.885,88.846,164.873,86.833,162.389,86.826L162.389,86.826z
		 M162.389,86.826"/>
</g>
</svg>
