<?xml version="1.0" encoding="utf-8"?>
<!-- Generator: Adobe Illustrator 24.1.2, SVG Export Plug-In . SVG Version: 6.00 Build 0)  -->
<svg version="1.1" id="Layer_1" xmlns="http://www.w3.org/2000/svg" xmlns:xlink="http://www.w3.org/1999/xlink" x="0px" y="0px"
	 viewBox="0 0 951.7 760" style="enable-background:new 0 0 951.7 760;" xml:space="preserve">
<style type="text/css">
	.st0{display:none;}
	.st1{display:inline;}
	.st2{fill:none;stroke:#000000;stroke-width:15;stroke-linecap:round;stroke-miterlimit:10;}
	.st3{fill:none;stroke:#000000;stroke-width:15;stroke-miterlimit:10;}
	.st4{stroke:#000000;stroke-width:15;stroke-linecap:round;stroke-miterlimit:10;}
	.st5{fill:none;stroke:#020203;stroke-width:15;stroke-miterlimit:10;}
	.st6{fill:none;stroke:#F05A21;stroke-width:15;stroke-miterlimit:10;}
	.st7{display:inline;fill:none;stroke:#000000;stroke-width:15;stroke-miterlimit:10;}
	.st8{enable-background:new    ;}
	.st9{fill:#F05A21;}
</style>
<g id="Layer_1_2_" class="st0">
	<g id="Layer_1_1_" class="st1">
		<g>
			<path d="M660.4,7.3c-2.1-2.1-5-3.3-8.1-3.3c-3,0-5.9,1.2-8.1,3.3L481.5,170l-0.4,0.5l-0.2,0.2c-0.2,0.3-0.6,0.7-0.8,1
				c0,0.1-0.1,0.1-0.1,0.2c-0.2,0.3-0.3,0.6-0.6,0.9c-0.1,0.1-0.1,0.2-0.2,0.3c-0.1,0.3-0.2,0.6-0.3,0.9c0,0.1-0.1,0.1-0.1,0.2
				l-29,87.4c-1.4,4.1-0.3,8.6,2.7,11.6c2.1,2.1,5,3.3,8.1,3.3c1.2,0,2.5-0.2,3.6-0.6l87.2-29.1c0.1,0,0.1,0,0.2-0.1
				c0.4-0.1,0.7-0.3,1-0.5c0.1,0,0.2-0.1,0.2-0.1c0.3-0.2,0.8-0.5,1.1-0.7s0.7-0.6,1-0.8c0.1-0.1,0.2-0.1,0.2-0.2
				c0.1-0.1,0.3-0.2,0.5-0.5L718.4,81.3c2.1-2.1,3.3-5,3.3-8s-1.2-5.9-3.3-8L660.4,7.3z M494.5,199.1l32.2,32.2l-48.2,16
				L494.5,199.1z M547.6,220.1l-42-42L652.3,31.4l42,42L547.6,220.1z"/>
			<path d="M633.5,216.4c-6.3,0-11.3,5.1-11.4,11.4v212.4c-0.1,18.8-15.3,34-34.1,34.1H285.6c-18.8-0.1-34-15.3-34.1-34.1V137.6
				c0.1-18.8,15.3-34,34.1-34.1H498c6.3,0,11.4-5.1,11.4-11.4s-5.1-11.4-11.4-11.4H285.6c-31.4,0.1-56.8,25.6-56.8,56.9v302.5
				c0,31.4,25.4,56.8,56.8,56.8h302.5c31.4,0,56.8-25.4,56.8-56.8V227.7C644.9,221.5,639.8,216.4,633.5,216.4L633.5,216.4z"/>
		</g>
	</g>
	<g id="Layer_2_1_" class="st1">
		<path class="st2" d="M633.5,216.4V456c0,16-13,29-29,29H269.2c-16,0-29-13-29-29V122.3c0-16.9,13.7-30.5,30.5-30.5h234.9"/>
		<path class="st3" d="M636.2,35.9L684,81.8c3,2.9,3.1,7.6,0.2,10.6L549.1,233l-58.5-56.2L625.7,36.1
			C628.5,33.1,633.2,33,636.2,35.9z"/>
		<path class="st3" d="M542.9,238.3l-71,17.8c-0.8,0.2-1.4-0.4-1.3-1.2l15-71.7c0.8-4,5.8-5.7,8.7-2.9l51.3,49.2
			C548.3,232.3,546.9,237.3,542.9,238.3z"/>
	</g>
	<g id="Layer_4" class="st1">
		<g>
			<path d="M689.4,217.1h-27.3v-50.2c0-12.1-9.6-21.8-21.3-21.8H447.3l-39-56.1H261.5c-11.8,0-21.4,9.8-21.4,21.9v349.7l0,0
				c0,4.5,1.3,8.9,4.1,12.6c3.8,5.1,9.6,8,15.9,8h349.7c9,0,17-6.2,19.2-14.5l79.9-224.5v-1.4C709,227.1,700.7,217.1,689.4,217.1
				L689.4,217.1z M255.8,110.8c0-3.2,2.5-5.9,5.7-5.9h138.7l39.1,56h201.4c3.2,0,5.7,2.6,5.7,5.9V217H339.6c-1.1,0-2.2,0.1-3.3,0.3
				c-7.6,1.3-13.9,7-15.8,14.2l-64.7,180.9L255.8,110.8L255.8,110.8z M614.2,461.9c-0.5,2-2.3,3.4-4.3,3.4H260.2
				c-1.9,0-3-1.1-3.5-1.8c-0.5-0.7-1.3-2-1-3.2l79.6-223.8c0.5-2,2.3-3.4,4.3-3.4h349.7c3,0,3.7,4.4,3.9,6.6L614.2,461.9z"/>
		</g>
	</g>
	<g id="Layer_5" class="st1">
		<path class="st3" d="M696.6,214.7H336.3c-5.4,0-10.2,3.6-12,8.9l-80.6,244c-2.8,8.6,3.3,17.5,12,17.5h360.2c5.4,0,10.2-3.6,12-8.9
			l80.6-244C711.4,223.6,705.3,214.7,696.6,214.7z"/>
		<path class="st3" d="M243,473.1l3-385.7c0-7.3,5.6-13.2,12.4-13.2h141.4c4.1,0,8,2.2,10.3,5.8l32.2,50.7c2.3,3.6,6.2,5.8,10.3,5.8
			h193.8c6.9,0,12.4,5.9,12.4,13.2v64.9"/>
	</g>
	<g id="Layer_6" class="st1">
		<g id="Layer_2_2_">
			<line class="st2" x1="713" y1="95.1" x2="633.7" y2="95.1"/>
			<line class="st2" x1="527.5" y1="95.1" x2="237.7" y2="95.1"/>
			<circle class="st4" cx="580.6" cy="95.1" r="53.1"/>
			<line class="st2" x1="713.9" y1="429" x2="634.6" y2="429"/>
			<line class="st2" x1="528.3" y1="429" x2="238.6" y2="429"/>
			<circle class="st4" cx="581.5" cy="429" r="53.1"/>
			<line class="st2" x1="317.9" y1="262" x2="238.6" y2="262"/>
			<line class="st2" x1="713.9" y1="262" x2="424.1" y2="262"/>
			<circle class="st4" cx="371" cy="262" r="53.1"/>
		</g>
	</g>
	<g id="Layer_3" class="st1">
		<path class="st5" d="M711.1,258h-49.5c-3.4,0-6.1,2.7-6.1,6.1V479c0,3.4-2.7,6.1-6.1,6.1H537.2c-3.4,0-6.1-2.7-6.1-6.1V351.5
			c0-3.4-2.7-6.1-6.1-6.1h-99.2c-3.4,0-6.1,2.7-6.1,6.1V479c0,3.4-2.7,6.1-6.1,6.1H302.1c-3.4,0-6.1-2.7-6.1-6.1V264.1
			c0-3.4-2.7-6.1-6.1-6.1h-46.5c-5.6,0-8.2-6.9-4.1-10.7L473.2,38.5c2.3-2.1,5.8-2.1,8.1,0l67.6,60.3c3.9,3.5,10.2,0.7,10.2-4.6
			V68.8c0-3.4,2.7-6.1,6.1-6.1h97c3.4,0,6.1,2.7,6.1,6.1v133.9c0,1.7,0.7,3.4,2,4.6l44.9,40.1C719.4,251,716.7,258,711.1,258z"/>
	</g>
</g>
<g id="Layer_2_4_">
	<g id="Layer_2_3_" class="st0">
		<path class="st1" d="M626.2,489.6H290.9c-20.1,0-36.5-16.4-36.5-36.5V119.4c0-21,17-38,38-38h234.9c4.1,0,7.5,3.4,7.5,7.5
			s-3.4,7.5-7.5,7.5H292.4c-12.7,0-23,10.3-23,23v333.7c0,11.9,9.6,21.5,21.5,21.5h335.3c11.9,0,21.5-9.6,21.5-21.5V213.5
			c0-4.1,3.4-7.5,7.5-7.5s7.5,3.4,7.5,7.5v239.6C662.7,473.2,646.4,489.6,626.2,489.6z"/>
		<path class="st1" d="M571.1,240.7l-69.3-66.6L642,28c2.7-2.9,6.4-4.5,10.4-4.6s7.8,1.4,10.8,4.2L711,73.5c6,5.8,6.1,15.3,0.4,21.2
			L571.1,240.7z M522.9,173.7l47.7,45.8L700.5,84.3l-47.7-45.8L522.9,173.7z"/>
		<path class="st1" d="M493.3,260.7c-2.1,0-4.1-0.7-5.6-2.1c-2.1-1.9-3.2-4.7-2.8-7.5l0.1-0.6l15-71.7c0.9-4.5,4.3-8.3,8.8-9.7
			c4.4-1.4,9.2-0.3,12.5,2.9l51.5,49.4c3.1,3.2,4.2,7.9,3,12.3c-1.3,4.5-4.8,7.9-9.3,9l-71,17.8
			C494.8,260.6,494.1,260.7,493.3,260.7z M513.9,185.7l-12.1,57.7l57.3-14.4L513.9,185.7z M562.8,228.1L562.8,228.1L562.8,228.1z
			 M510.8,182.8C510.9,182.8,510.9,182.8,510.8,182.8L510.8,182.8z M514.7,181.8L514.7,181.8L514.7,181.8z"/>
	</g>
</g>
<g id="Layer_3_2_">
	<path class="st6" d="M709.7,253.7h-49.5c-3.4,0-6.1,2.7-6.1,6.1v214.9c0,3.4-2.7,6.1-6.1,6.1H535.8c-3.4,0-6.1-2.7-6.1-6.1V347.2
		c0-3.4-2.7-6.1-6.1-6.1h-99.2c-3.4,0-6.1,2.7-6.1,6.1v127.5c0,3.4-2.7,6.1-6.1,6.1H300.7c-3.4,0-6.1-2.7-6.1-6.1V259.8
		c0-3.4-2.7-6.1-6.1-6.1H242c-5.6,0-8.2-6.9-4.1-10.7L471.8,34.2c2.3-2.1,5.8-2.1,8.1,0l67.6,60.3c3.9,3.5,10.2,0.7,10.2-4.6V64.5
		c0-3.4,2.7-6.1,6.1-6.1h97c3.4,0,6.1,2.7,6.1,6.1v133.9c0,1.7,0.7,3.4,2,4.6l44.9,40.1C718,246.7,715.3,253.7,709.7,253.7z"/>
</g>
<g id="Layer_5_1_" class="st0">
	<path class="st7" d="M699.2,210.6H338.9c-5.4,0-10.2,3.6-12,8.9l-80.6,244c-2.8,8.6,3.3,17.5,12,17.5h360.2c5.4,0,10.2-3.6,12-8.9
		l80.6-244C714,219.5,707.9,210.6,699.2,210.6z"/>
	<path class="st7" d="M245.6,469l3-385.7c0-7.3,5.6-13.2,12.4-13.2h141.4c4.1,0,8,2.2,10.3,5.8l32.2,50.7c2.3,3.6,6.2,5.8,10.3,5.8
		H649c6.9,0,12.4,5.9,12.4,13.2v64.9"/>
</g>
<g class="st8">
	<path class="st9" d="M367.2,716.7v-56.3h-63.4v56.3H290V592.1h13.9v55.8h63.4v-55.8h13.7v124.6H367.2z"/>
	<path class="st9" d="M409.3,714.4v-87.7h13.3v87.8c0,11-2,19.3-5.9,24.8c-4,5.5-11.9,11.3-23.9,17.5l-5.4-10.4
		c9.4-5.4,15.4-10,18-13.8C408,728.9,409.3,722.8,409.3,714.4z M409.3,606.4v-15.7h13.3v15.7H409.3z"/>
	<path class="st9" d="M509.8,705.5l5.2-0.5l0.4,10.6c-13.7,1.9-25.4,2.9-35.1,2.9c-13,0-22.1-3.7-27.5-11.2
		c-5.4-7.5-8.1-19.2-8.1-35c0-31.6,12.5-47.3,37.6-47.3c12.1,0,21.2,3.4,27.2,10.2c6,6.8,9,17.4,9,32l-0.7,10.3h-59.4
		c0,10,1.8,17.3,5.4,22.1c3.6,4.8,9.9,7.2,18.8,7.2C491.4,706.6,500.5,706.3,509.8,705.5z M504.9,666.5c0-11-1.8-18.8-5.3-23.4
		c-3.5-4.6-9.3-6.8-17.3-6.8c-8,0-14,2.4-18,7.2c-4,4.8-6.1,12.5-6.2,23H504.9z"/>
	<path class="st9" d="M553,716.7h-13.5v-90h13.3v6.3c9-5.4,17.8-8.1,26.3-8.1c11.2,0,19,3.1,23.4,9.2c4-2.4,9.1-4.5,15.4-6.4
		c6.3-1.9,11.8-2.8,16.7-2.8c12,0,20.1,3.2,24.2,9.6c4.1,6.4,6.2,18,6.2,34.7v47.5h-13.5v-47.2c0-12.5-1.2-21-3.6-25.6
		c-2.4-4.6-7.5-6.9-15.3-6.9c-4,0-8,0.6-12.2,1.7c-4.2,1.1-7.4,2.2-9.7,3.3l-3.4,1.6c1.6,4,2.3,12.7,2.3,26.3v46.8H596v-46.4
		c0-13-1.2-21.7-3.5-26.4c-2.3-4.6-7.5-6.9-15.4-6.9c-3.8,0-7.8,0.6-11.8,1.7c-4,1.1-7.1,2.2-9.3,3.3l-3.1,1.6V716.7z"/>
</g>
</svg>
