<?xml version="1.0" encoding="utf-8"?>
<!-- Generator: Adobe Illustrator 24.1.2, SVG Export Plug-In . SVG Version: 6.00 Build 0)  -->
<svg version="1.1" id="Capa_1" xmlns="http://www.w3.org/2000/svg" xmlns:xlink="http://www.w3.org/1999/xlink" x="0px" y="0px"
	 viewBox="0 0 512 512" style="enable-background:new 0 0 512 512;" xml:space="preserve">
<style type="text/css">
	.st0{display:none;}
	.st1{fill:none;stroke:#000000;stroke-width:15;stroke-miterlimit:10;}
</style>
<path class="st0" d="M422.1,483.2H304.6c-7.8,0-14.1-6.3-14.1-14.1V350.2h-69.1v118.9c0,7.8-6.3,14.1-14.1,14.1H89.8
	c-7.8,0-14.1-6.3-14.1-14.1V273.3H41.5c-10.2,0-19.2-6.1-22.9-15.7c-3.7-9.5-1.2-20.1,6.3-27L239.5,35.3c9.4-8.6,23.6-8.6,33,0
	l48.8,44.4v-7.8c0-7.8,6.3-14.1,14.1-14.1h97.2c7.8,0,14.1,6.3,14.1,14.1v122l40.4,36.8c7.5,6.9,10,17.5,6.3,27
	c-3.7,9.5-12.7,15.7-22.9,15.7h-34.3v195.8C436.2,476.9,429.9,483.2,422.1,483.2z M318.7,455.1h89.4V259.3c0-7.8,6.3-14.1,14.1-14.1
	h39l-38.1-34.7c-2.9-2.7-4.6-6.4-4.6-10.4V85.9h-69.1v25.6c0,5.6-3.3,10.6-8.4,12.9c-5.1,2.2-11,1.3-15.1-2.5L256,58.3L50.8,245.2
	h39c7.8,0,14.1,6.3,14.1,14.1v195.8h89.4V336.2c0-7.8,6.3-14.1,14.1-14.1h97.2c7.8,0,14.1,6.3,14.1,14.1V455.1L318.7,455.1z"/>
<path class="st1" d="M473.7,257H428c-3.1,0-5.6,2.5-5.6,5.6v198.7c0,3.1-2.5,5.6-5.6,5.6H312.9c-3.1,0-5.6-2.5-5.6-5.6V343.5
	c0-3.1-2.5-5.6-5.6-5.6h-91.8c-3.1,0-5.6,2.5-5.6,5.6v117.9c0,3.1-2.5,5.6-5.6,5.6h-103c-3.1,0-5.6-2.5-5.6-5.6V262.6
	c0-3.1-2.5-5.6-5.6-5.6h-43c-5.2,0-7.6-6.4-3.8-9.9L253.8,54.1c2.1-1.9,5.4-1.9,7.5,0l62.5,55.8c3.6,3.2,9.4,0.7,9.4-4.2V82.2
	c0-3.1,2.5-5.6,5.6-5.6h89.7c3.1,0,5.6,2.5,5.6,5.6v123.8c0,1.6,0.7,3.1,1.9,4.2l41.5,37C481.4,250.6,478.9,257,473.7,257z"/>
</svg>
