<?xml version="1.0" encoding="iso-8859-1"?>
<!-- Generator: Adobe Illustrator 24.1.2, SVG Export Plug-In . SVG Version: 6.00 Build 0)  -->
<svg version="1.1" id="Capa_1" xmlns="http://www.w3.org/2000/svg" xmlns:xlink="http://www.w3.org/1999/xlink" x="0px" y="0px"
	 viewBox="-49 141 512 512" style="enable-background:new -49 141 512 512;" xml:space="preserve">
<path d="M373.147,624.167H255.6c-7.763,0-14.057-6.294-14.057-14.057v-118.88h-69.088v118.88c0,7.763-6.294,14.057-14.057,14.057
	H40.847c-7.763,0-14.057-6.294-14.057-14.057V414.316H-7.463c-10.201,0-19.173-6.147-22.858-15.659
	c-3.684-9.513-1.192-20.1,6.347-26.971l214.465-195.419c9.41-8.577,23.605-8.578,33.018,0.001l48.767,44.436v-7.818
	c0-7.763,6.294-14.057,14.057-14.057h97.202c7.763,0,14.057,6.294,14.057,14.057v122.005l40.38,36.794
	c7.541,6.872,10.032,17.459,6.348,26.972c-3.685,9.512-12.657,15.659-22.858,15.659h-34.26V610.11
	C387.204,617.873,380.91,624.167,373.147,624.167z M269.657,596.053h89.433V400.258c0-7.763,6.294-14.057,14.057-14.057h39.015
	l-38.094-34.711c-2.924-2.664-4.589-6.435-4.589-10.391V226.943h-69.088v25.587c0,5.567-3.286,10.609-8.377,12.859
	c-5.091,2.247-11.032,1.281-15.147-2.468l-69.866-63.662L1.838,386.201h39.008c7.763,0,14.057,6.294,14.057,14.057v195.794h89.438
	v-118.88c0-7.763,6.294-14.057,14.057-14.057h97.202c7.763,0,14.057,6.294,14.057,14.057L269.657,596.053L269.657,596.053z"/>
</svg>
