<?xml version="1.0" encoding="iso-8859-1"?>
<!-- Generator: Adobe Illustrator 24.1.2, SVG Export Plug-In . SVG Version: 6.00 Build 0)  -->
<svg version="1.1" id="Layer_1" xmlns="http://www.w3.org/2000/svg" xmlns:xlink="http://www.w3.org/1999/xlink" x="0px" y="0px"
	 viewBox="-49 141 512 512" style="enable-background:new -49 141 512 512;" xml:space="preserve">
<path d="M351.52,194.016c0-7.212-2.788-13.968-7.856-19.032l-16.128-16.12c-5.06-5.072-11.824-7.864-19.032-7.864
	s-13.964,2.792-19.028,7.864L70.328,378.008c-5.084,5.08-7.868,11.868-7.848,19.084c-0.02,7.248,2.76,14.028,7.848,19.112
	l218.944,218.932c5.064,5.072,11.82,7.864,19.032,7.864c7.208,0,13.964-2.792,19.032-7.864l16.124-16.12
	c10.492-10.492,10.492-27.572,0-38.06L159.608,397.104L343.664,213.04C348.732,207.984,351.52,201.224,351.52,194.016"/>
</svg>
