<?xml version="1.0" encoding="iso-8859-1"?>
<!-- Generator: Adobe Illustrator 24.1.2, SVG Export Plug-In . SVG Version: 6.00 Build 0)  -->
<svg version="1.1" xmlns="http://www.w3.org/2000/svg" xmlns:xlink="http://www.w3.org/1999/xlink" x="0px" y="0px"
	 viewBox="0 0 500 500" style="enable-background:new 0 0 500 500;" xml:space="preserve">
<g id="Layer_3" style="display:none;">
	
		<image style="display:inline;overflow:visible;" width="225" height="225" xlink:href="../../Unknown.png"  transform="matrix(2.8979 0 0 2.8979 -75.8793 -60.9278)">
	</image>
</g>
<g id="Layer_4">
	<g>
		<path style="fill:#222B3C;" d="M19.711,444.672c6.356,0,11.219,1.01,14.587,3.026c3.369,2.018,5.054,5.099,5.054,9.243
			c0,5.171-2.946,8.674-8.835,10.508c0.804,0.844,1.716,1.87,2.733,3.081c1.017,1.21,2.055,2.521,3.114,3.934
			c1.059,1.412,2.076,2.86,3.051,4.346c0.974,1.485,1.843,2.943,2.606,4.374H33.06c-0.806-1.32-1.674-2.649-2.606-3.988
			c-0.933-1.339-1.875-2.642-2.829-3.906c-0.954-1.266-1.897-2.457-2.829-3.576c-0.933-1.118-1.802-2.118-2.606-2.998
			c-0.594,0.036-1.103,0.055-1.526,0.055c-0.424,0-0.826,0-1.208,0H15.58v14.414H7.571v-37.576c1.949-0.366,4.025-0.613,6.229-0.742
			C16.003,444.736,17.973,444.672,19.711,444.672z M20.283,450.669c-1.695,0-3.264,0.055-4.704,0.165v12.324h3.496
			c1.949,0,3.665-0.092,5.148-0.275c1.483-0.184,2.723-0.514,3.719-0.99c0.995-0.477,1.748-1.118,2.256-1.926
			c0.508-0.807,0.763-1.834,0.763-3.081c0-1.173-0.254-2.163-0.763-2.971c-0.508-0.807-1.239-1.448-2.193-1.926
			c-0.954-0.476-2.088-0.815-3.401-1.018C23.292,450.771,21.851,450.669,20.283,450.669z"/>
		<path style="fill:#222B3C;" d="M90.395,464.093c0,3.265-0.562,6.144-1.685,8.638c-1.123,2.495-2.648,4.576-4.576,6.244
			c-1.929,1.67-4.186,2.926-6.77,3.769c-2.585,0.844-5.339,1.266-8.263,1.266c-2.924,0-5.689-0.422-8.295-1.266
			c-2.606-0.843-4.874-2.099-6.801-3.769c-1.929-1.668-3.464-3.749-4.608-6.244c-1.145-2.494-1.716-5.373-1.716-8.638
			c0-3.264,0.572-6.134,1.716-8.609c1.144-2.477,2.701-4.558,4.672-6.245c1.97-1.687,4.248-2.951,6.833-3.796
			c2.584-0.843,5.317-1.266,8.2-1.266c2.881,0,5.614,0.423,8.2,1.266c2.584,0.845,4.84,2.109,6.769,3.796
			c1.928,1.688,3.464,3.769,4.608,6.245C89.823,457.959,90.395,460.829,90.395,464.093z M56.007,464.093
			c0,2.091,0.296,3.989,0.89,5.694c0.593,1.706,1.451,3.155,2.574,4.347c1.122,1.192,2.489,2.118,4.1,2.778
			c1.61,0.66,3.433,0.99,5.466,0.99c1.992,0,3.792-0.33,5.403-0.99c1.61-0.66,2.977-1.586,4.1-2.778
			c1.122-1.191,1.98-2.641,2.574-4.347c0.593-1.705,0.89-3.604,0.89-5.694s-0.297-3.988-0.89-5.694
			c-0.594-1.705-1.452-3.153-2.574-4.346c-1.123-1.191-2.49-2.118-4.1-2.778c-1.611-0.66-3.412-0.99-5.403-0.99
			c-2.034,0-3.856,0.33-5.466,0.99c-1.611,0.66-2.978,1.596-4.1,2.806c-1.124,1.21-1.981,2.66-2.574,4.347
			C56.303,460.114,56.007,462.002,56.007,464.093z"/>
		<path style="fill:#222B3C;" d="M114.23,483.624c-2.331,0-4.683-0.064-7.056-0.192c-2.374-0.13-4.449-0.395-6.229-0.798v-37.026
			c0.932-0.146,1.928-0.283,2.987-0.412c1.059-0.128,2.139-0.229,3.242-0.303c1.102-0.073,2.193-0.128,3.273-0.165
			c1.081-0.036,2.108-0.056,3.083-0.056c2.669,0,5.148,0.175,7.437,0.523c2.288,0.349,4.269,0.927,5.943,1.732
			c1.674,0.808,2.977,1.871,3.909,3.191c0.932,1.32,1.398,2.952,1.398,4.896c0,1.797-0.499,3.338-1.494,4.621
			c-0.996,1.284-2.384,2.311-4.164,3.081c2.67,0.771,4.64,1.907,5.912,3.411c1.271,1.504,1.907,3.411,1.907,5.722
			c0,3.925-1.652,6.868-4.958,8.83C126.117,482.643,121.053,483.624,114.23,483.624z M108.828,460.572h5.657
			c3.051,0,5.444-0.376,7.183-1.128c1.737-0.752,2.606-2.1,2.606-4.044c0-1.834-0.901-3.136-2.702-3.906
			c-1.801-0.771-4.143-1.155-7.023-1.155c-1.229,0-2.32,0.019-3.273,0.055c-0.954,0.037-1.77,0.093-2.447,0.165V460.572z
			 M108.828,466.019v11.608c0.89,0.074,1.843,0.129,2.86,0.165c1.017,0.037,1.949,0.055,2.797,0.055
			c1.652,0,3.188-0.091,4.608-0.274c1.419-0.184,2.648-0.504,3.687-0.963c1.038-0.458,1.864-1.073,2.479-1.843
			c0.614-0.771,0.921-1.761,0.921-2.972c0-2.163-0.912-3.667-2.733-4.511c-1.823-0.844-4.344-1.266-7.564-1.266H108.828z"/>
		<path style="fill:#222B3C;" d="M185.421,464.093c0,3.265-0.562,6.144-1.685,8.638c-1.123,2.495-2.648,4.576-4.576,6.244
			c-1.929,1.67-4.186,2.926-6.77,3.769c-2.585,0.844-5.339,1.266-8.263,1.266c-2.924,0-5.689-0.422-8.295-1.266
			c-2.606-0.843-4.874-2.099-6.801-3.769c-1.929-1.668-3.464-3.749-4.608-6.244c-1.145-2.494-1.716-5.373-1.716-8.638
			c0-3.264,0.572-6.134,1.716-8.609c1.144-2.477,2.701-4.558,4.672-6.245c1.97-1.687,4.248-2.951,6.833-3.796
			c2.584-0.843,5.317-1.266,8.2-1.266c2.881,0,5.614,0.423,8.2,1.266c2.584,0.845,4.84,2.109,6.769,3.796
			c1.928,1.688,3.464,3.769,4.608,6.245C184.85,457.959,185.421,460.829,185.421,464.093z M151.034,464.093
			c0,2.091,0.296,3.989,0.89,5.694c0.593,1.706,1.451,3.155,2.574,4.347c1.122,1.192,2.489,2.118,4.1,2.778
			c1.61,0.66,3.433,0.99,5.466,0.99c1.992,0,3.792-0.33,5.403-0.99c1.61-0.66,2.977-1.586,4.1-2.778
			c1.122-1.191,1.98-2.641,2.574-4.347c0.593-1.705,0.89-3.604,0.89-5.694s-0.297-3.988-0.89-5.694
			c-0.594-1.705-1.452-3.153-2.574-4.346c-1.123-1.191-2.49-2.118-4.1-2.778c-1.611-0.66-3.412-0.99-5.403-0.99
			c-2.034,0-3.856,0.33-5.466,0.99c-1.611,0.66-2.978,1.596-4.1,2.806c-1.124,1.21-1.981,2.66-2.574,4.347
			C151.33,460.114,151.034,462.002,151.034,464.093z"/>
		<path style="fill:#222B3C;" d="M225.149,445.058v5.997H211.61v32.129h-8.073v-32.129h-13.539v-5.997H225.149z"/>
		<path style="fill:#222B3C;" d="M279.304,483.184c-1.441-2.091-3.051-4.337-4.831-6.739c-1.779-2.402-3.623-4.822-5.53-7.263
			c-1.906-2.438-3.845-4.804-5.815-7.097c-1.971-2.292-3.846-4.354-5.626-6.189v27.288h-7.881v-38.126h6.547
			c1.694,1.54,3.517,3.365,5.466,5.474c1.949,2.109,3.909,4.301,5.88,6.575s3.877,4.558,5.721,6.849
			c1.843,2.293,3.485,4.429,4.926,6.41v-25.308h7.945v38.126H279.304z"/>
		<path style="fill:#222B3C;" d="M339.371,464.093c0,3.265-0.562,6.144-1.685,8.638c-1.124,2.495-2.649,4.576-4.577,6.244
			c-1.929,1.67-4.185,2.926-6.77,3.769c-2.585,0.844-5.339,1.266-8.263,1.266s-5.689-0.422-8.295-1.266
			c-2.606-0.843-4.874-2.099-6.802-3.769c-1.929-1.668-3.464-3.749-4.608-6.244c-1.144-2.494-1.716-5.373-1.716-8.638
			c0-3.264,0.572-6.134,1.716-8.609c1.145-2.477,2.702-4.558,4.672-6.245c1.971-1.687,4.248-2.951,6.833-3.796
			c2.585-0.843,5.317-1.266,8.2-1.266c2.881,0,5.614,0.423,8.199,1.266c2.585,0.845,4.841,2.109,6.77,3.796
			c1.928,1.688,3.465,3.769,4.608,6.245C338.799,457.959,339.371,460.829,339.371,464.093z M304.983,464.093
			c0,2.091,0.296,3.989,0.89,5.694c0.593,1.706,1.451,3.155,2.574,4.347c1.122,1.192,2.489,2.118,4.1,2.778s3.433,0.99,5.467,0.99
			c1.991,0,3.792-0.33,5.402-0.99s2.977-1.586,4.101-2.778c1.122-1.191,1.979-2.641,2.574-4.347c0.593-1.705,0.89-3.604,0.89-5.694
			s-0.297-3.988-0.89-5.694c-0.595-1.705-1.452-3.153-2.574-4.346c-1.124-1.191-2.49-2.118-4.101-2.778s-3.411-0.99-5.402-0.99
			c-2.034,0-3.856,0.33-5.467,0.99s-2.978,1.596-4.1,2.806c-1.123,1.21-1.981,2.66-2.574,4.347
			C305.279,460.114,304.983,462.002,304.983,464.093z"/>
		<path style="fill:#222B3C;" d="M362.062,444.672c6.356,0,11.22,1.01,14.588,3.026c3.369,2.018,5.054,5.099,5.054,9.243
			c0,5.171-2.946,8.674-8.836,10.508c0.805,0.844,1.717,1.87,2.733,3.081c1.018,1.21,2.055,2.521,3.115,3.934
			c1.059,1.412,2.075,2.86,3.051,4.346c0.975,1.485,1.843,2.943,2.606,4.374h-8.963c-0.806-1.32-1.675-2.649-2.606-3.988
			c-0.933-1.339-1.875-2.642-2.828-3.906c-0.953-1.266-1.897-2.457-2.829-3.576c-0.933-1.118-1.801-2.118-2.605-2.998
			c-0.594,0.036-1.103,0.055-1.525,0.055c-0.425,0-0.826,0-1.208,0h-3.877v14.414h-8.01v-37.576
			c1.949-0.366,4.025-0.613,6.229-0.742C358.354,444.736,360.325,444.672,362.062,444.672z M362.635,450.669
			c-1.695,0-3.264,0.055-4.703,0.165v12.324h3.495c1.949,0,3.665-0.092,5.149-0.275c1.482-0.184,2.722-0.514,3.718-0.99
			c0.995-0.477,1.748-1.118,2.257-1.926c0.509-0.807,0.763-1.834,0.763-3.081c0-1.173-0.254-2.163-0.763-2.971
			c-0.509-0.807-1.239-1.448-2.193-1.926c-0.953-0.476-2.087-0.815-3.4-1.018C365.644,450.771,364.202,450.669,362.635,450.669z"/>
		<path style="fill:#222B3C;" d="M429.758,464.093c0,3.301-0.595,6.172-1.78,8.61c-1.187,2.439-2.871,4.476-5.053,6.106
			c-2.184,1.633-4.811,2.843-7.882,3.631c-3.073,0.789-6.474,1.184-10.202,1.184c-1.78,0-3.793-0.064-6.039-0.192
			c-2.246-0.13-4.386-0.395-6.42-0.798v-37.026c2.034-0.403,4.195-0.66,6.483-0.771c2.289-0.109,4.322-0.165,6.103-0.165
			c3.687,0,7.056,0.377,10.106,1.128c3.051,0.753,5.667,1.926,7.851,3.521c2.182,1.596,3.866,3.613,5.053,6.052
			C429.163,457.812,429.758,460.719,429.758,464.093z M400.392,477.462c0.466,0.037,1.08,0.064,1.843,0.083s1.801,0.027,3.114,0.027
			c5.382,0,9.396-1.184,12.046-3.549c2.647-2.365,3.973-5.675,3.973-9.931c0-4.327-1.293-7.647-3.878-9.958
			s-6.589-3.466-12.013-3.466c-2.374,0-4.068,0.055-5.085,0.165V477.462z"/>
		<path style="fill:#222B3C;" d="M440.309,445.058h8.01v38.126h-8.01V445.058z"/>
		<path style="fill:#222B3C;" d="M480.227,484.009c-3.306,0-6.272-0.44-8.899-1.32c-2.628-0.88-4.853-2.173-6.674-3.879
			c-1.822-1.705-3.221-3.786-4.195-6.244c-0.976-2.457-1.462-5.281-1.462-8.473c0-3.19,0.562-6.015,1.685-8.473
			c1.122-2.456,2.658-4.538,4.608-6.244c1.948-1.705,4.236-2.998,6.864-3.878c2.627-0.881,5.445-1.321,8.454-1.321
			c1.821,0,3.475,0.12,4.958,0.358s2.775,0.504,3.878,0.798c1.101,0.294,2.012,0.604,2.732,0.935s1.229,0.569,1.526,0.716
			l-2.353,5.666c-1.017-0.55-2.469-1.072-4.354-1.567c-1.887-0.495-3.932-0.743-6.134-0.743c-1.907,0-3.688,0.284-5.34,0.853
			c-1.652,0.569-3.083,1.422-4.29,2.559c-1.208,1.138-2.151,2.567-2.829,4.291c-0.678,1.725-1.017,3.724-1.017,5.997
			c0,2.018,0.264,3.87,0.794,5.557c0.529,1.688,1.345,3.146,2.447,4.374c1.102,1.229,2.5,2.183,4.195,2.86
			c1.694,0.68,3.729,1.018,6.103,1.018c2.838,0,5.148-0.247,6.928-0.742c1.78-0.495,3.156-0.963,4.132-1.403l2.161,5.667
			c-0.509,0.294-1.197,0.587-2.065,0.88c-0.869,0.294-1.897,0.578-3.083,0.853c-1.187,0.275-2.521,0.496-4.005,0.661
			S481.921,484.009,480.227,484.009z"/>
	</g>
</g>
<g id="Layer_2">
	<polygon style="fill:#222B3C;" points="432.018,222.985 344.798,374.055 155.358,374.055 68.138,222.985 148.048,222.985 
		195.808,309.695 196.208,309.475 196.208,309.675 298.024,309.675 310.938,284.745 210.518,284.745 176.508,222.985 	"/>
	<path style="fill:#F05A21;" d="M418.828,174.175l-54.06-93.64c-14.106-25.932-35.2-34.59-59.91-34.59h-109.56
		c-30.066,0-47.55,13.19-59.91,34.59l-67.401,116.74c-0.013,0.022,0.003,0.05,0.029,0.05h237.176
		c8.979,0,14.684-9.611,10.385-17.493l-20.822-38.175c-2.26-4.144-6.603-6.722-11.323-6.722h-73.32
		c-6.484,0-12.147-5.302-12.062-11.786c0.041-3.158,1.333-5.998,3.409-8.074c2.1-2.1,5.01-3.4,8.22-3.4h88.29
		c0.24,0,0.49,0.01,0.73,0.03c3.86,0.24,7.51,2.39,9.49,6.03l41.607,76.249c1.124,2.06,3.283,3.341,5.629,3.341h50.034
		C417.348,197.325,424.768,184.465,418.828,174.175z"/>
	<path style="fill:#FFFFFF;" d="M298.698,111.675v0.03c-0.24-0.02-0.49-0.03-0.73-0.03H298.698z"/>
</g>
</svg>
