<?xml version="1.0" encoding="iso-8859-1"?>
<!-- Generator: Adobe Illustrator 24.1.2, SVG Export Plug-In . SVG Version: 6.00 Build 0)  -->
<svg version="1.1" id="Layer_2" xmlns="http://www.w3.org/2000/svg" xmlns:xlink="http://www.w3.org/1999/xlink" x="0px" y="0px"
	 viewBox="0 0 500 500" style="enable-background:new 0 0 500 500;" xml:space="preserve">
<polygon style="fill:#222B3C;" points="432.018,262.985 344.798,414.055 155.358,414.055 68.138,262.985 148.048,262.985 
	195.808,349.695 196.208,349.475 196.208,349.675 298.024,349.675 310.938,324.745 210.518,324.745 176.508,262.985 "/>
<path style="fill:#F05A21;" d="M418.828,214.175l-54.06-93.64c-14.106-25.932-35.2-34.59-59.91-34.59h-109.56
	c-30.066,0-47.55,13.19-59.91,34.59l-67.401,116.74c-0.013,0.022,0.003,0.05,0.029,0.05h237.176c8.979,0,14.684-9.611,10.385-17.493
	l-20.822-38.175c-2.26-4.144-6.603-6.722-11.323-6.722h-73.32c-6.484,0-12.147-5.302-12.062-11.786
	c0.041-3.158,1.333-5.998,3.409-8.074c2.1-2.1,5.01-3.4,8.22-3.4h88.29c0.24,0,0.49,0.01,0.73,0.03c3.86,0.24,7.51,2.39,9.49,6.03
	l41.607,76.249c1.124,2.06,3.283,3.341,5.629,3.341h50.034C417.348,237.325,424.768,224.465,418.828,214.175z"/>
<path style="fill:#FFFFFF;" d="M298.698,151.675v0.03c-0.24-0.02-0.49-0.03-0.73-0.03H298.698z"/>
</svg>
