<?xml version="1.0" encoding="iso-8859-1"?>
<!-- Generator: Adobe Illustrator 24.1.2, SVG Export Plug-In . SVG Version: 6.00 Build 0)  -->
<svg version="1.1" id="Layer_2" xmlns="http://www.w3.org/2000/svg" xmlns:xlink="http://www.w3.org/1999/xlink" x="0px" y="0px"
	 viewBox="0 0 500 500" style="enable-background:new 0 0 500 500;" xml:space="preserve">
<polygon style="fill:#222B3C;" points="494.646,267.453 377.415,470.503 122.793,470.503 5.563,267.453 112.968,267.453 
	177.161,383.998 177.699,383.702 177.699,383.971 314.548,383.971 331.905,350.463 196.933,350.463 151.221,267.453 "/>
<path style="fill:#F05A21;" d="M476.917,201.848L404.257,75.989c-18.96-34.855-47.312-46.492-80.524-46.492H176.476
	c-40.411,0-63.911,17.728-80.524,46.492L5.36,232.896c-0.017,0.03,0.004,0.068,0.039,0.068h318.783
	c12.068,0,19.736-12.917,13.958-23.512l-27.987-51.31c-3.038-5.57-8.875-9.035-15.219-9.035l-98.548,0
	c-8.715,0-16.326-7.127-16.212-15.841c0.055-4.244,1.792-8.062,4.582-10.852c2.823-2.823,6.734-4.57,11.048-4.57h118.669
	c0.323,0,0.659,0.013,0.981,0.04c5.188,0.323,10.094,3.212,12.755,8.105l55.923,102.485c1.51,2.768,4.412,4.49,7.566,4.49h67.25
	C474.928,232.964,484.901,215.679,476.917,201.848z"/>
<path style="fill:#FFFFFF;" d="M315.453,117.844v0.04c-0.323-0.027-0.659-0.04-0.981-0.04H315.453z"/>
</svg>
