<?xml version="1.0" encoding="iso-8859-1"?>
<!-- Generator: Adobe Illustrator 24.1.2, SVG Export Plug-In . SVG Version: 6.00 Build 0)  -->
<svg version="1.1" xmlns="http://www.w3.org/2000/svg" xmlns:xlink="http://www.w3.org/1999/xlink" x="0px" y="0px"
	 viewBox="-49 141 512 512" style="enable-background:new -49 141 512 512;" xml:space="preserve">
<g id="Capa_1" style="display:none;">
	<g style="display:inline;">
		<path d="M313.667,636.333c-30.326,0-56.626-19.716-65.443-49.06L246.939,583H-27.667C-36.122,583-43,576.122-43,567.667
			s6.878-15.334,15.333-15.334h274.603l1.286-4.27C257.062,518.717,283.361,499,313.667,499c30.326,0,56.626,19.716,65.443,49.06
			l1.284,4.273h61.272c8.455,0,15.333,6.879,15.333,15.334S450.122,583,441.667,583h-61.27l-1.286,4.27
			C370.272,616.616,343.973,636.333,313.667,636.333z M313.667,529.667c-20.953,0-38,17.047-38,38s17.047,38,38,38s38-17.047,38-38
			S334.62,529.667,313.667,529.667z"/>
		<path style="fill:#FFFFFF;" d="M313.667,505c13.664,0,26.627,4.383,37.488,12.676c10.511,8.026,18.398,19.43,22.209,32.11
			l2.568,8.547h8.924h56.811c5.146,0,9.333,4.187,9.333,9.333c0,5.146-4.187,9.333-9.333,9.333h-56.811h-8.918l-2.572,8.539
			c-3.821,12.687-11.712,24.093-22.22,32.118c-10.858,8.292-23.818,12.675-37.479,12.675c-13.664,0-26.628-4.383-37.488-12.676
			c-10.511-8.026-18.398-19.43-22.209-32.11L251.402,577h-8.924H-27.667c-5.146,0-9.333-4.187-9.333-9.333
			c0-5.146,4.187-9.333,9.333-9.333h270.144h8.918l2.572-8.539c3.821-12.687,11.712-24.093,22.22-32.118
			C287.045,509.383,300.005,505,313.667,505 M313.667,611.667c24.262,0,44-19.738,44-44s-19.738-44-44-44c-24.262,0-44,19.738-44,44
			S289.405,611.667,313.667,611.667 M313.667,493c-33.707,0-61.931,22.592-71.189,53.333H-27.667
			c-11.776,0-21.333,9.557-21.333,21.333S-39.443,589-27.667,589h270.144c9.237,30.741,37.483,53.333,71.189,53.333
			c33.707,0,61.931-22.592,71.189-53.333h56.811c11.797,0,21.333-9.557,21.333-21.333s-9.536-21.333-21.333-21.333h-56.811
			C375.619,515.592,347.373,493,313.667,493L313.667,493z M313.667,599.667c-17.643,0-32-14.357-32-32s14.357-32,32-32
			c17.643,0,32,14.357,32,32S331.309,599.667,313.667,599.667L313.667,599.667z"/>
	</g>
	<g style="display:inline;">
		<path d="M313.667,295c-30.306,0-56.605-19.717-65.444-49.064l-1.286-4.27H-27.667c-8.455,0-15.333-6.878-15.333-15.333
			C-43,217.878-36.122,211-27.667,211h274.603l1.286-4.27c8.839-29.347,35.139-49.064,65.444-49.064s56.605,19.717,65.444,49.064
			l1.286,4.27h61.27c8.455,0,15.333,6.878,15.333,15.333c0,8.455-6.878,15.333-15.333,15.333h-61.27l-1.286,4.27
			C370.272,275.283,343.973,295,313.667,295z M313.667,188.333c-20.953,0-38,17.047-38,38s17.047,38,38,38s38-17.047,38-38
			S334.62,188.333,313.667,188.333z"/>
		<path style="fill:#FFFFFF;" d="M313.667,163.667c13.661,0,26.621,4.383,37.479,12.675c10.508,8.025,18.399,19.432,22.22,32.119
			l2.572,8.539h8.918h56.811c5.146,0,9.333,4.187,9.333,9.333c0,5.146-4.187,9.333-9.333,9.333h-56.811h-8.918l-2.572,8.539
			c-3.821,12.687-11.712,24.093-22.22,32.119C340.288,284.617,327.328,289,313.667,289c-13.661,0-26.622-4.383-37.479-12.675
			c-10.508-8.025-18.399-19.432-22.22-32.119l-2.572-8.539h-8.918H-27.667c-5.146,0-9.333-4.187-9.333-9.333
			c0-5.146,4.187-9.333,9.333-9.333h270.144h8.918l2.572-8.539c3.821-12.687,11.712-24.093,22.22-32.119
			C287.045,168.05,300.005,163.667,313.667,163.667 M313.667,270.333c24.262,0,44-19.738,44-44s-19.738-44-44-44
			c-24.262,0-44,19.738-44,44S289.405,270.333,313.667,270.333 M313.667,151.667c-33.707,0-61.931,22.592-71.189,53.333H-27.667
			C-39.443,205-49,214.557-49,226.333s9.557,21.333,21.333,21.333h270.144C251.736,278.408,279.96,301,313.667,301
			c33.707,0,61.931-22.592,71.189-53.333h56.811c11.797,0,21.333-9.557,21.333-21.333S453.464,205,441.667,205h-56.811
			C375.597,174.259,347.373,151.667,313.667,151.667L313.667,151.667z M313.667,258.333c-17.643,0-32-14.357-32-32
			c0-17.643,14.357-32,32-32c17.643,0,32,14.357,32,32C345.667,243.976,331.309,258.333,313.667,258.333L313.667,258.333z"/>
	</g>
	<g style="display:inline;">
		<path d="M100.333,465.667c-30.306,0-56.605-19.718-65.444-49.064l-1.286-4.27h-61.27C-36.122,412.333-43,405.455-43,397
			s6.878-15.333,15.333-15.333h61.27l1.286-4.27c8.839-29.346,35.139-49.063,65.444-49.063s56.605,19.717,65.444,49.063l1.286,4.27
			h274.604c8.455,0,15.333,6.878,15.333,15.333s-6.878,15.333-15.333,15.333H167.063l-1.286,4.27
			C156.939,445.949,130.639,465.667,100.333,465.667z M100.333,359c-20.953,0-38,17.047-38,38s17.047,38,38,38s38-17.047,38-38
			S121.287,359,100.333,359z"/>
		<path style="fill:#FFFFFF;" d="M100.333,334.333c13.661,0,26.621,4.383,37.479,12.675c10.508,8.025,18.399,19.432,22.22,32.119
			l2.572,8.539h8.918h270.144c5.146,0,9.333,4.187,9.333,9.333c0,5.146-4.187,9.333-9.333,9.333H171.523h-8.918l-2.572,8.539
			c-3.821,12.687-11.712,24.093-22.22,32.118c-10.858,8.292-23.818,12.675-37.479,12.675c-13.661,0-26.622-4.383-37.479-12.675
			c-10.508-8.025-18.399-19.432-22.22-32.118l-2.572-8.539h-8.918h-56.811c-5.146,0-9.333-4.187-9.333-9.333
			c0-5.146,4.187-9.333,9.333-9.333h56.811h8.918l2.572-8.539c3.821-12.687,11.712-24.093,22.22-32.119
			C73.712,338.716,86.672,334.333,100.333,334.333 M100.333,441c24.262,0,44-19.738,44-44s-19.738-44-44-44s-44,19.738-44,44
			S76.072,441,100.333,441 M100.333,322.333c-33.707,0-61.931,22.592-71.189,53.333h-56.811C-39.443,375.667-49,385.224-49,397
			s9.557,21.333,21.333,21.333h56.811c9.259,30.741,37.483,53.333,71.189,53.333c33.707,0,61.931-22.592,71.189-53.333h270.144
			c11.797,0,21.333-9.557,21.333-21.333s-9.536-21.333-21.333-21.333H171.523C162.264,344.925,134.04,322.333,100.333,322.333
			L100.333,322.333z M100.333,429c-17.643,0-32-14.357-32-32s14.357-32,32-32c17.643,0,32,14.357,32,32S117.976,429,100.333,429
			L100.333,429z"/>
	</g>
</g>
<g id="Layer_2">
	
		<line style="fill:none;stroke:#000000;stroke-width:19;stroke-linecap:round;stroke-miterlimit:10;" x1="449.06" y1="226.33" x2="367.97" y2="226.33"/>
	
		<line style="fill:none;stroke:#000000;stroke-width:19;stroke-linecap:round;stroke-miterlimit:10;" x1="259.37" y1="226.33" x2="-36.84" y2="226.33"/>
	
		<circle style="fill:none;stroke:#000000;stroke-width:19;stroke-linecap:round;stroke-miterlimit:10;" cx="313.67" cy="226.33" r="54.3"/>
	
		<line style="fill:none;stroke:#000000;stroke-width:19;stroke-linecap:round;stroke-miterlimit:10;" x1="449.95" y1="567.67" x2="368.86" y2="567.67"/>
	
		<line style="fill:none;stroke:#000000;stroke-width:19;stroke-linecap:round;stroke-miterlimit:10;" x1="260.26" y1="567.67" x2="-35.95" y2="567.67"/>
	
		<circle style="fill:none;stroke:#000000;stroke-width:19;stroke-linecap:round;stroke-miterlimit:10;" cx="314.56" cy="567.67" r="54.3"/>
	
		<line style="fill:none;stroke:#000000;stroke-width:19;stroke-linecap:round;stroke-miterlimit:10;" x1="45.14" y1="397" x2="-35.95" y2="397"/>
	
		<line style="fill:none;stroke:#000000;stroke-width:19;stroke-linecap:round;stroke-miterlimit:10;" x1="449.95" y1="397" x2="153.74" y2="397"/>
	
		<circle style="fill:none;stroke:#000000;stroke-width:19;stroke-linecap:round;stroke-miterlimit:10;" cx="99.44" cy="397" r="54.3"/>
</g>
</svg>
