<?xml version="1.0" encoding="iso-8859-1"?>
<!-- Generator: Adobe Illustrator 24.1.2, SVG Export Plug-In . SVG Version: 6.00 Build 0)  -->
<svg version="1.1" id="Layer_1" xmlns="http://www.w3.org/2000/svg" xmlns:xlink="http://www.w3.org/1999/xlink" x="0px" y="0px"
	 viewBox="0 0 200 200" style="enable-background:new 0 0 200 200;" xml:space="preserve">
<g>
	<path d="M187.87,73.436h-11.16V53.394c0-4.823-3.916-8.722-8.722-8.722H88.856L72.874,22.288H12.849
		c-4.827,0-8.742,3.916-8.742,8.738v139.645h0.016c-0.016,1.794,0.547,3.556,1.67,5.027c1.558,2.042,3.932,3.212,6.509,3.212
		h143.073c3.7,0,6.948-2.481,7.835-5.79L195.894,83.5v-0.575C195.894,77.431,192.521,73.436,187.87,73.436L187.87,73.436z
		 M10.507,31.027c0-1.295,1.043-2.337,2.341-2.337h56.733l15.982,22.363h82.409c1.294,0,2.341,1.047,2.341,2.341v20.042H44.797
		c-0.455,0-0.907,0.032-1.358,0.108c-3.109,0.531-5.698,2.793-6.461,5.682l-26.471,72.2V31.027z M157.125,171.187
		c-0.22,0.779-0.939,1.343-1.75,1.343H12.301c-0.767,0-1.235-0.455-1.422-0.719c-0.2-0.268-0.515-0.811-0.403-1.295l32.572-89.357
		c0.22-0.779,0.935-1.343,1.75-1.343H187.87c1.219,0,1.53,1.75,1.61,2.625L157.125,171.187z M157.125,171.187"/>
</g>
</svg>
